<svg width="161" height="61" viewBox="0 0 161 61" fill="none" xmlns="http://www.w3.org/2000/svg">
<g clip-path="url(#clip0_4_390)">
<path d="M147.513 0.975716C147.228 0.867304 146.944 0.767926 146.645 0.673065C147.165 1.29644 147.685 1.92884 148.205 2.56125L147.509 0.971199L147.513 0.975716Z" fill="#FF9A00"/>
<path d="M151.56 10.2269C147.821 9.35509 143.024 9.65774 138.38 11.2478C131.757 13.5199 125.174 17.4183 118.098 21.7638C111.335 25.9196 105.181 30.0528 98.6843 32.6095C93.91 34.4887 88.168 34.5655 85.0348 32.3746C80.9658 29.5198 78.9131 24.9123 76.1326 20.1421C73.4515 15.5481 70.142 11.0761 65.8333 10.516C60.7334 9.86553 55.5656 13.7232 50.4115 18.5566C44.4797 24.1218 39.4114 30.3103 34.1984 35.7625C29.7496 40.4107 25.9111 43.9748 21.7651 45.4474C23.23 48.6455 24.6587 51.7353 26.4762 54.5495C36.1109 48.1215 44.0094 35.9658 56.8361 26.0732C61.8049 22.2471 67.687 19.9343 71.6837 21.6102C76.2185 23.5255 78.5695 28.2595 81.3229 33.0341C83.9452 37.5829 86.459 41.9375 90.8446 43.6495C94.9137 45.2305 100.85 43.6315 106.42 40.8895C121.883 33.2736 134.004 21.9445 148.44 19.7491C151.044 19.3561 153.685 19.6904 156.054 20.5125L151.56 10.2314V10.2269Z" fill="white"/>
<path d="M156.054 20.5125C153.685 19.6904 151.044 19.3561 148.44 19.7491C134.004 21.949 121.883 33.2781 106.42 40.8895C100.85 43.6269 94.9136 45.2305 90.8445 43.6495C86.459 41.9375 83.9452 37.5829 81.3229 33.0341C78.5695 28.2595 76.2185 23.521 71.6837 21.6102C67.687 19.9298 61.8049 22.2471 56.8361 26.0732C44.0094 35.9613 36.1109 48.1215 26.4762 54.5495C28.0541 56.9933 29.9168 59.1163 32.3718 60.2366C42.0698 51.3739 50.2939 39.1911 63.7806 33.5852C68.0848 31.801 73.7408 32.7902 76.7203 35.6993C80.4774 39.3717 82.4351 44.0832 85.6316 48.4513C88.2675 52.0515 92.7706 55.0238 97.0522 54.8024C103.052 54.4817 109.065 51.1255 115.887 47.1684C132.087 37.7682 146.731 26.9676 158.165 30.2154C159.115 30.4865 159.983 30.8749 160.788 31.3447L156.054 20.517V20.5125Z" fill="#048F17"/>
<path d="M148.209 2.56576C147.69 1.93335 147.17 1.30095 146.65 0.677576C142.088 -0.745336 135.808 0.130997 129.437 2.77806C123.121 5.40706 116.855 9.30087 110.177 13.4973C103.929 17.4228 98.214 21.2443 92.1149 23.4758C87.648 25.111 82.1728 24.9168 79.1391 22.6988C77.6787 21.6283 76.4716 20.3363 75.382 18.8999C75.6351 19.3109 75.8838 19.722 76.128 20.1376C78.9085 24.9077 80.9611 29.5153 85.0302 32.3701C88.1634 34.5609 93.9053 34.4842 98.6797 32.605C105.177 30.0483 111.33 25.9151 118.094 21.7593C125.165 17.4137 131.748 13.5154 138.376 11.2433C143.019 9.65321 147.816 9.35056 151.555 10.2224L148.205 2.56124L148.209 2.56576Z" fill="#FF9A00"/>
<path d="M75.3865 18.8999C74.7581 17.879 74.098 16.8807 73.3972 15.9502C74.0302 16.9801 74.6858 17.9693 75.3865 18.8999Z" fill="#FF9A00"/>
<path d="M59.9918 1.11575C55.0321 0.474307 50.0362 4.32746 45.09 9.21053C39.3661 14.866 34.5194 21.1811 29.4647 26.7507C25.2102 31.4351 21.6023 35.0443 17.5016 36.1103C18.9167 39.1459 20.3138 42.2673 21.7651 45.4383C25.911 43.9657 29.7495 40.4017 34.1984 35.7535C39.4113 30.3013 44.4796 24.1127 50.4114 18.5475C55.5656 13.7142 60.7378 9.85649 65.8332 10.507C68.7811 10.8909 71.2632 13.1089 73.3972 15.9457C72.3483 14.2427 71.3446 12.4222 70.2278 10.5747C67.5151 6.07561 64.2282 1.66684 59.9918 1.11123V1.11575Z" fill="#FF9A00"/>
<path style="mix-blend-mode:color-burn" d="M147.513 0.975711C147.228 0.871816 146.944 0.76792 146.645 0.67306C142.083 -0.749852 135.803 0.126481 129.433 2.77355C123.117 5.40255 116.85 9.29636 110.173 13.4928C103.924 17.4182 98.2096 21.2398 92.1105 23.4713C87.6435 25.1065 82.1683 24.9122 79.1346 22.6943C75.1786 19.7898 73.0536 15.2726 70.2233 10.5747C67.5106 6.07561 64.2237 1.66684 59.9873 1.11123C55.0276 0.469786 50.0316 4.32294 45.0854 9.20601C39.3616 14.8615 34.5149 21.1765 29.4602 26.7462C25.2057 31.4305 21.5978 35.0398 17.4971 36.1058C18.9122 39.1414 20.3093 42.2627 21.7606 45.4338C23.2254 48.632 24.6541 51.7217 26.4717 54.5359C28.0496 56.9797 29.9123 59.1028 32.3673 60.223C42.0653 51.3603 50.2893 39.1775 63.7761 33.5717C68.0803 31.7874 73.7363 32.7767 76.7158 35.6857C80.4729 39.3582 82.4306 44.0696 85.6271 48.4377C88.2629 52.0379 92.766 55.0102 97.0476 54.7889C103.047 54.4682 109.06 51.1119 115.883 47.1548C132.082 37.7546 146.727 26.954 158.161 30.2019C159.11 30.4729 159.978 30.8614 160.783 31.3312L147.513 0.975711ZM46.4735 35.5909C47.2918 34.7552 48.1146 33.9285 48.9511 33.1064C48.1146 33.9285 47.2873 34.7597 46.4735 35.5909Z" fill="url(#paint0_linear_4_390)"/>
<path d="M160.788 31.3402C159.983 30.8704 159.115 30.4819 158.165 30.2109C146.731 26.9631 132.082 37.7682 115.887 47.1639C109.06 51.1209 103.047 54.4772 97.0521 54.7979C92.7706 55.0238 88.2674 52.0515 85.6316 48.4468C82.4396 44.0741 80.4774 39.3672 76.7203 35.6948C73.7363 32.7857 68.0803 31.7964 63.7806 33.5807C50.2939 39.1865 42.0698 51.3649 32.3718 60.2321C42.1286 51.3784 50.3526 39.2182 63.8303 33.7253C68.1255 31.9816 73.7544 33.0116 76.7293 35.9251C80.4729 39.5976 82.4351 44.291 85.609 48.65C88.2358 52.2502 92.6756 55.2406 96.9346 55.0599C102.857 54.8024 108.825 51.5275 115.566 47.6427C131.666 38.3644 145.972 27.5367 157.745 30.4413C158.938 30.7394 160.014 31.2182 161 31.8326L160.783 31.3402H160.788Z" fill="white"/>
<path d="M25.5041 59.8933C38.9753 59.8933 49.896 48.9824 49.896 35.5231C49.896 22.0638 38.9753 11.1529 25.5041 11.1529C12.0328 11.1529 1.11218 22.0638 1.11218 35.5231C1.11218 48.9824 12.0328 59.8933 25.5041 59.8933Z" fill="white"/>
<path d="M25.5041 10.0417C11.4206 10.0417 0 21.4476 0 35.5231C0 49.5986 11.4206 61.0045 25.5041 61.0045C39.5876 61.0045 51.0082 49.5941 51.0082 35.5231C51.0082 21.4521 39.5876 10.0417 25.5041 10.0417ZM49.1907 37.0996C48.5396 37.1131 48.0197 37.6507 48.0378 38.3057C48.0513 38.8477 48.4266 39.2904 48.9284 39.4169C48.8335 39.9951 48.716 40.5688 48.5758 41.1334L36.6624 37.339L28.6056 35.9839C28.6283 35.8438 28.6463 35.7038 28.6463 35.5638L36.78 36.4175L49.2495 35.5457C49.2495 36.0697 49.2268 36.5892 49.1907 37.1041V37.0996ZM48.0423 42.9855C48.0197 42.981 47.9971 42.9674 47.9745 42.9629C47.3415 42.8093 46.704 43.1978 46.5503 43.8347C46.4147 44.3858 46.695 44.9459 47.1923 45.1763C46.9436 45.7319 46.6814 46.2785 46.3921 46.807L35.817 40.1035L28.3796 36.7563C28.4429 36.6163 28.4836 36.4672 28.5288 36.3181L36.2103 39.1188L48.5396 41.2961C48.3949 41.8697 48.2277 42.4299 48.0468 42.9855H48.0423ZM36.0069 56.668C35.6632 56.1124 34.9308 55.9498 34.3792 56.2931C33.8955 56.5957 33.7056 57.192 33.9 57.7115C33.3981 57.9012 32.8827 58.0774 32.3628 58.2355L29.5596 46.0075L26.6344 38.4096C26.77 38.3599 26.8921 38.2921 27.0187 38.2244L30.4096 45.6371L37.535 55.9679C37.0558 56.2524 36.563 56.519 36.0611 56.7674C36.043 56.7313 36.0295 56.6951 36.0114 56.6635L36.0069 56.668ZM29.8038 58.7324C29.6139 58.109 28.9493 57.7612 28.3253 57.9554C27.7964 58.118 27.4663 58.624 27.4979 59.1525C26.8966 59.2022 26.2863 59.2338 25.6669 59.2383L26.4174 46.7212L25.7482 38.6038C25.9336 38.5903 26.119 38.5632 26.2953 38.5135L27.7918 46.5224L32.2045 58.2761C31.4269 58.5065 30.6311 58.6917 29.8218 58.8408C29.8128 58.8047 29.8083 58.764 29.7992 58.7279L29.8038 58.7324ZM16.5973 56.266C16.0412 56.144 15.4942 56.4331 15.2681 56.93C14.8386 56.7267 14.4181 56.5054 14.0022 56.275L20.7885 45.7274L24.1794 38.3238C24.3195 38.387 24.4642 38.4367 24.6134 38.4819L21.7651 46.1204L19.4909 58.4704C18.7946 58.2897 18.1119 58.0774 17.4473 57.8335C17.4699 57.7793 17.488 57.725 17.5016 57.6618C17.6417 57.0249 17.2393 56.397 16.6019 56.257L16.5973 56.266ZM4.66136 44.2819C4.35392 43.8121 3.76616 43.636 3.25979 43.8257C3.07442 43.3288 2.90713 42.8274 2.75341 42.3169L14.9426 39.5118L22.5608 36.5756C22.6105 36.7156 22.6783 36.8466 22.7462 36.9731L15.3359 40.4107L5.05922 47.5795C4.75178 47.06 4.45791 46.527 4.19115 45.9804C4.23637 45.9578 4.28158 45.9397 4.32227 45.9126C4.86933 45.5558 5.01853 44.824 4.66136 44.2774V44.2819ZM1.84465 33.5852C1.90343 33.5897 1.95768 33.5943 2.02098 33.5898C2.67203 33.5491 3.16484 32.989 3.12415 32.3385C3.08798 31.7874 2.67655 31.3492 2.15209 31.2544C2.24252 30.7575 2.34198 30.2651 2.46405 29.7818L14.3458 33.5672L22.4071 34.9268C22.3845 35.0624 22.3709 35.2069 22.3664 35.3469L14.2282 34.4932L1.76327 35.365C1.76327 34.7642 1.79944 34.1725 1.84465 33.5852ZM3.06537 27.7671C3.11963 27.7852 3.17388 27.8078 3.23266 27.8168C3.87015 27.9433 4.49407 27.5277 4.62067 26.8863C4.72918 26.3352 4.4353 25.8021 3.94701 25.5853C4.17307 25.0929 4.41269 24.6096 4.67492 24.1353L15.1912 30.8027L22.6557 34.1634C22.5924 34.3035 22.5427 34.448 22.4975 34.5971L14.8024 31.7919L2.50475 29.6191C2.66751 28.9913 2.8574 28.3769 3.0699 27.7716L3.06537 27.7671ZM15.1415 14.4143C15.5077 14.9519 16.2447 15.0874 16.7827 14.717C17.2484 14.3963 17.4157 13.7955 17.2032 13.2895C17.6869 13.1089 18.1752 12.9462 18.6726 12.7972L21.4486 24.8942L24.3919 32.5418C24.2608 32.5915 24.1342 32.6547 24.0121 32.7225L20.5986 25.2601L13.541 15.0287C14.0293 14.7441 14.5266 14.473 15.0375 14.2201C15.0646 14.2833 15.1008 14.3466 15.1415 14.4098V14.4143ZM2.16113 39.8551C2.21087 39.846 2.26512 39.837 2.31938 39.8189C2.93878 39.6157 3.27335 38.9426 3.06537 38.3238C2.88905 37.7998 2.37815 37.4836 1.85369 37.5242C1.79944 36.8647 1.76327 36.2007 1.76327 35.5276L14.2237 36.3226L22.3754 35.6857C22.389 35.8754 22.4161 36.0652 22.4613 36.2459L14.4272 37.7501L2.71272 42.1543C2.4957 41.4 2.31033 40.6366 2.16566 39.8551H2.16113ZM24.7174 32.4424L23.2119 24.3747L18.8444 12.743C19.509 12.5487 20.1826 12.3816 20.8699 12.2461C20.8789 12.3183 20.897 12.3906 20.9241 12.4629C21.1411 13.0772 21.8193 13.3934 22.4342 13.1766C22.9677 12.9869 23.2797 12.4493 23.2073 11.9073C23.9081 11.8395 24.6134 11.8034 25.3278 11.7989L24.5863 24.1805L25.26 32.3566C25.0746 32.3701 24.8937 32.3972 24.7219 32.4424H24.7174ZM28.4971 13.0275C29.0397 13.0275 29.4918 12.6571 29.632 12.1602C30.2016 12.2596 30.7668 12.3771 31.3229 12.5171L27.4708 24.316L26.0512 32.3882C25.902 32.3611 25.7528 32.3475 25.599 32.343L26.4264 24.185L25.5131 11.7989C26.1235 11.7989 26.7248 11.8305 27.3216 11.8757C27.3352 12.5171 27.8551 13.0321 28.5017 13.0321L28.4971 13.0275ZM34.1351 14.5363C34.6641 14.6763 35.1976 14.4324 35.4553 13.9807C35.9571 14.2156 36.4544 14.4595 36.9382 14.726L30.2197 25.1742L26.8062 32.6231C26.6706 32.5598 26.5214 32.5147 26.3767 32.4695L29.2431 24.7812L31.4947 12.5623C32.1051 12.7204 32.7019 12.9056 33.2941 13.1134C33.1359 13.7367 33.5111 14.3782 34.1351 14.5408V14.5363ZM39.2033 17.4318C39.6781 17.7028 40.2613 17.6034 40.6275 17.2285C41.1791 17.6848 41.7126 18.1681 42.2235 18.674L32.8782 26.8682L27.5386 33.0929C27.403 32.9799 27.2628 32.876 27.1091 32.7857L31.8247 26.0732L37.0965 14.8163C37.6616 15.1325 38.2177 15.4713 38.7557 15.8327C38.4393 16.3974 38.6382 17.1156 39.2033 17.4318ZM43.3629 21.5244C43.7562 21.9083 44.3439 21.958 44.7915 21.6915C45.1442 22.1839 45.4878 22.6853 45.8043 23.2093L34.7364 28.91L28.0586 33.6485C27.9772 33.5355 27.8868 33.4271 27.7918 33.3232L34.1712 28.1782L42.3501 18.8005C42.6937 19.1438 43.0192 19.5007 43.3402 19.8666C42.8881 20.3318 42.8972 21.0726 43.3629 21.5289V21.5244ZM46.3378 26.5429C46.6181 27.0173 47.1833 27.2205 47.6896 27.0669C47.8795 27.5683 48.0604 28.0788 48.2141 28.5937L36.0611 31.3899L28.4248 34.3306C28.3705 34.1951 28.3027 34.0641 28.2304 33.9376L35.6678 30.4864L45.8857 23.3583C46.1931 23.8688 46.4734 24.3928 46.7447 24.9258C46.1841 25.2601 46.0032 25.9828 46.3378 26.5429ZM48.7883 30.8614C48.7883 30.8614 48.7521 30.8659 48.7386 30.8704C48.1101 31.0511 47.7484 31.7061 47.9293 32.3295C48.083 32.8715 48.5939 33.2103 49.1319 33.1787C49.2042 33.8969 49.2404 34.6287 49.2449 35.365L36.7845 34.57L28.6283 35.2069C28.6102 35.0172 28.583 34.832 28.5333 34.6513L36.5856 33.1425L48.2638 28.7519C48.4673 29.443 48.6436 30.1431 48.7883 30.8569V30.8614ZM10.0868 17.486C10.1275 17.5357 10.1727 17.5854 10.2224 17.626C10.7152 18.0506 11.4612 17.9964 11.8908 17.5041C12.2525 17.084 12.2615 16.4787 11.9541 16.0495C12.4197 15.7243 12.899 15.4171 13.3918 15.1235L19.0162 26.1951L23.7182 32.8986C23.5916 32.9844 23.4696 33.0883 23.3565 33.1968L18.1481 26.8682L8.68975 18.7779C9.13735 18.3307 9.60755 17.9016 10.0868 17.4905V17.486ZM8.56768 18.8999L16.8505 28.1646L23.1214 33.4407C23.0084 33.5717 22.9044 33.7117 22.814 33.8608L16.0774 29.1945L4.7563 23.9862C5.08635 23.39 5.43901 22.8118 5.81879 22.2516C5.87304 22.2878 5.9273 22.3239 5.98607 22.3555C6.56931 22.6401 7.27913 22.3962 7.56397 21.8089C7.80812 21.303 7.65892 20.7067 7.23392 20.3725C7.65892 19.8666 8.10199 19.3787 8.56316 18.9044L8.56768 18.8999ZM7.33791 50.7912C7.39216 50.7505 7.4419 50.7053 7.48711 50.6557C7.92567 50.1723 7.88498 49.427 7.39669 48.9888C6.97169 48.6094 6.34777 48.5913 5.90469 48.9165C5.63794 48.5281 5.38475 48.1306 5.14061 47.7285L16.2718 41.9962L22.918 37.2803C22.9994 37.3977 23.0943 37.5016 23.1892 37.6055L16.8415 42.728L8.59933 52.1779C8.16077 51.7353 7.7403 51.27 7.33791 50.7957V50.7912ZM8.71236 52.2909L18.1345 44.029L23.4424 37.8404C23.5781 37.9579 23.7182 38.0663 23.8719 38.1566L19.1835 44.8285L13.862 56.1937C13.1929 55.8188 12.5463 55.4077 11.9179 54.9741C11.9541 54.9244 11.9902 54.8747 12.0174 54.8205C12.3158 54.2423 12.0852 53.5286 11.5065 53.235C11.0046 52.9775 10.4033 53.1175 10.0552 53.5331C9.59399 53.1356 9.14187 52.7245 8.70784 52.2954L8.71236 52.2909ZM23.5193 59.1525C23.5193 59.1118 23.5283 59.0712 23.5238 59.0305C23.4967 58.38 22.9451 57.8741 22.294 57.9057C21.7425 57.9283 21.2949 58.3303 21.1909 58.8498C20.6664 58.755 20.151 58.6465 19.6401 58.5156L23.5374 46.5902L24.9435 38.5767C25.0927 38.6038 25.2464 38.6174 25.4046 38.6219L24.5818 46.7257L25.5086 59.2473H25.5041C24.835 59.2473 24.1749 59.2112 23.5193 59.157V59.1525ZM41.057 53.4337C41.0209 53.3931 40.9892 53.3479 40.9485 53.3072C40.4738 52.86 39.7233 52.8871 39.2802 53.3614C38.8778 53.7861 38.8597 54.432 39.2079 54.8837C38.7105 55.2361 38.1996 55.5749 37.6752 55.8866L31.9965 44.7065L27.3171 38.0437C27.4437 37.9533 27.5658 37.854 27.6833 37.7456L32.8646 44.038L42.3953 52.1915C41.9658 52.6251 41.5227 53.0362 41.0616 53.4337H41.057ZM42.5038 52.0741L34.1532 42.737L27.9094 37.4836C28.0224 37.348 28.1219 37.208 28.2123 37.0544L34.9263 41.7071L46.3107 46.9471C45.9625 47.5795 45.5873 48.1983 45.1804 48.7946C45.1442 48.7675 45.1035 48.7359 45.0628 48.7133C44.4886 48.4016 43.7743 48.6184 43.4623 49.1921C43.1865 49.7025 43.3267 50.3214 43.7652 50.6737C43.3629 51.1571 42.9379 51.6223 42.4993 52.0741H42.5038Z" fill="#00519E"/>
<path d="M86.7935 21.3256C83.6829 21.3256 80.0795 20.0473 78.366 17.0207L78.7593 16.7994C80.5407 19.9434 84.4967 21.0907 87.6435 20.8423C91.0977 20.5622 94.3484 18.9134 97.346 17.1698C100.651 15.2455 103.911 13.1044 107.062 11.031C112.316 7.57532 117.75 4.00223 123.569 1.34161L123.759 1.75268C117.972 4.39974 112.551 7.9638 107.311 11.4104C104.155 13.4838 100.891 15.634 97.572 17.5628C94.5293 19.3335 91.2243 21.0094 87.6796 21.294C87.3903 21.3166 87.0964 21.3301 86.7935 21.3301V21.3256Z" fill="#FF9A00"/>
<path d="M119.55 49.2824L119.292 48.912C120.612 47.9905 151.695 26.4119 159.377 35.094L159.038 35.3921C151.623 27.0082 119.871 49.0566 119.55 49.2824Z" fill="#049C19"/>
</g>
<defs>
<linearGradient id="paint0_linear_4_390" x1="-93.2945" y1="-140.592" x2="130.6" y2="-186.68" gradientUnits="userSpaceOnUse">
<stop/>
<stop offset="0.02" stop-color="#0B0B0B"/>
<stop offset="0.13" stop-color="#606060"/>
<stop offset="0.24" stop-color="#A4A4A4"/>
<stop offset="0.33" stop-color="#D5D5D5"/>
<stop offset="0.39" stop-color="#F3F3F3"/>
<stop offset="0.43" stop-color="white"/>
<stop offset="0.57" stop-color="white"/>
</linearGradient>
<clipPath id="clip0_4_390">
<rect width="161" height="61" fill="white"/>
</clipPath>
</defs>
</svg>
