<svg width="32" height="32" viewBox="0 0 32 32" fill="none" xmlns="http://www.w3.org/2000/svg">
<path d="M15.9914 0.249064C13.8912 0.248412 11.8114 0.661597 9.87099 1.46501C7.93053 2.26842 6.16739 3.44631 4.68232 4.93138C3.19725 6.41645 2.01936 8.17959 1.21595 10.12C0.412534 12.0605 -0.000651002 14.1403 7.69892e-07 16.2405C7.69892e-07 23.7555 5.15884 29.9927 12.1133 31.7507C12.029 31.5068 11.9887 31.2498 11.9943 30.9918V28.2725H9.99525C8.91586 28.2725 7.91187 27.7933 7.47535 26.9123C6.9555 25.953 6.8801 24.4738 5.55666 23.5541C5.15983 23.2337 5.4763 22.9142 5.9158 22.9589C6.75609 23.1979 7.43468 23.7585 8.07457 24.5968C8.71447 25.4351 8.99423 25.6375 10.1937 25.6375C10.9425 25.636 11.6904 25.5823 12.4318 25.4768C12.8723 24.3567 13.6312 23.3577 14.5509 22.8785C9.19364 22.2386 6.63605 19.5997 6.63605 16.0014C6.63605 14.4359 7.31463 12.9577 8.43271 11.6779C8.07358 10.4388 7.59341 7.88017 8.59343 6.88114C10.9933 6.88114 12.4318 8.4407 12.7909 8.83952C14.0404 8.42028 15.3491 8.20424 16.667 8.19962C17.9859 8.20075 19.2957 8.41688 20.5451 8.83952C20.9042 8.44268 22.3437 6.88114 24.7416 6.88114C25.7009 7.84049 25.2614 10.4388 24.8616 11.6779C25.9817 12.918 26.6216 14.4369 26.6216 15.9964C26.6216 19.5947 24.1017 22.2336 18.7841 22.7932C20.2633 23.5521 21.303 25.7109 21.303 27.3101V30.9521C21.303 31.0721 21.2643 31.1912 21.2643 31.3112C24.8343 30.0722 27.8494 27.6076 29.7738 24.3554C31.6982 21.1032 32.4071 17.274 31.7747 13.5484C31.1423 9.82281 29.2094 6.4421 26.3196 4.0071C23.4298 1.5721 19.7703 0.240544 15.9914 0.249064Z" fill="black"/>
</svg>
