<svg width="59" height="58" viewBox="0 0 59 58" fill="none" xmlns="http://www.w3.org/2000/svg">
<rect x="0.0301514" width="57.9888" height="57.9888" rx="10" fill="#38D191"/>
<path d="M19.6276 41.1279L15.2934 32.8781H15.2608V41.1279H8.02625V18.1323H18.7803C20.6487 18.1323 22.2455 18.4679 23.5708 19.1392C24.896 19.7888 25.8846 20.6874 26.5363 21.835C27.2098 22.961 27.5466 24.2385 27.5466 25.6676C27.5466 27.205 27.112 28.5691 26.243 29.76C25.3957 30.9509 24.1682 31.8062 22.5606 32.3259L27.5791 41.1279H19.6276ZM15.2608 28.0711H18.1286C18.8238 28.0711 19.3452 27.9195 19.6928 27.6164C20.0404 27.2916 20.2142 26.7935 20.2142 26.1223C20.2142 25.516 20.0296 25.0396 19.6602 24.6932C19.3126 24.3467 18.8021 24.1735 18.1286 24.1735H15.2608V28.0711Z" fill="white"/>
<path d="M52.0177 18.1323L43.7403 34.1448V41.1279H36.5058V34.1448L28.2284 18.1323H36.5058L40.1882 26.2847L43.8707 18.1323H52.0177Z" fill="white"/>
</svg>
