<svg width="48" height="48" viewBox="0 0 48 48" fill="none" xmlns="http://www.w3.org/2000/svg">
<path d="M23.8272 0C11.642 0 12.4051 5.28532 12.4051 5.28532L12.4182 10.7586H24.0471V12.4051H7.79829C7.79829 12.4051 0 11.5179 0 23.814C0 36.1101 6.80588 35.6741 6.80588 35.6741H10.8676V29.9677C10.8676 29.9677 10.6496 23.1618 17.5645 23.1618H29.0974C29.0974 23.1618 35.5782 23.2671 35.5782 16.8991V6.37359C35.5782 6.37359 36.5612 0 23.8272 0ZM17.416 3.68206C17.8297 3.68206 18.2342 3.80475 18.5782 4.03462C18.9222 4.26448 19.1904 4.5912 19.3487 4.97345C19.507 5.35571 19.5485 5.77633 19.4677 6.18213C19.387 6.58793 19.1878 6.96068 18.8952 7.25324C18.6027 7.54581 18.2299 7.74505 17.8241 7.82576C17.4183 7.90648 16.9977 7.86506 16.6154 7.70672C16.2332 7.54839 15.9065 7.28025 15.6766 6.93624C15.4467 6.59222 15.324 6.18776 15.324 5.77401C15.3238 5.49922 15.3777 5.22708 15.4828 4.97316C15.5878 4.71924 15.7419 4.48853 15.9362 4.29423C16.1305 4.09992 16.3612 3.94584 16.6151 3.8408C16.8691 3.73575 17.1412 3.68181 17.416 3.68206Z" fill="url(#paint0_linear_4_221)"/>
<path d="M24.1728 47.7499C36.358 47.7499 35.5987 42.4665 35.5987 42.4665L35.5836 36.9913H23.9567V35.3486H40.2036C40.2036 35.3486 48 36.232 48 23.9359C48 11.6398 41.1941 12.0777 41.1941 12.0777H37.1324V17.7822C37.1324 17.7822 37.3523 24.5881 30.4355 24.5881H18.9026C18.9026 24.5881 12.4218 24.4847 12.4218 30.8508V41.3763C12.4218 41.3763 11.4388 47.7462 24.1728 47.7462V47.7499ZM30.5859 44.0697C30.1721 44.0697 29.7677 43.947 29.4237 43.7172C29.0796 43.4873 28.8115 43.1606 28.6532 42.7783C28.4948 42.3961 28.4534 41.9755 28.5341 41.5697C28.6149 41.1639 28.8141 40.7911 29.1067 40.4986C29.3992 40.206 29.772 40.0068 30.1778 39.926C30.5836 39.8453 31.0042 39.8867 31.3864 40.0451C31.7687 40.2034 32.0954 40.4715 32.3253 40.8156C32.5551 41.1596 32.6778 41.564 32.6778 41.9778C32.6781 42.2526 32.6241 42.5247 32.5191 42.7786C32.4141 43.0326 32.26 43.2633 32.0657 43.4576C31.8714 43.6519 31.6407 43.806 31.3867 43.911C31.1328 44.016 30.8607 44.07 30.5859 44.0697Z" fill="url(#paint1_linear_4_221)"/>
<defs>
<linearGradient id="paint0_linear_4_221" x1="4.48342" y1="5.2417" x2="28.3854" y2="28.7336" gradientUnits="userSpaceOnUse">
<stop stop-color="#397EB8"/>
<stop offset="1" stop-color="#366994"/>
</linearGradient>
<linearGradient id="paint1_linear_4_221" x1="19.38" y1="20.5246" x2="44.7065" y2="44.3701" gradientUnits="userSpaceOnUse">
<stop stop-color="#FDDF52"/>
<stop offset="1" stop-color="#FFC332"/>
</linearGradient>
</defs>
</svg>
